<svg width="30" height="36" viewBox="0 0 30 36" fill="none" xmlns="http://www.w3.org/2000/svg">
<g clip-path="url(#clip0_93_2)">
<path d="M25.85 35.9H3.7C2.66667 35.9 1.79167 35.5514 1.075 34.8541C0.358333 34.1569 0 33.3056 0 32.3003V3.59973C0 2.5944 0.358333 1.74311 1.075 1.04587C1.79167 0.348622 2.65 0 3.65 0H18.45L29.5 10.7505V32.3003C29.5 33.3056 29.1417 34.1569 28.425 34.8541C27.7083 35.5514 26.85 35.9 25.85 35.9ZM16.6 12.5504V3.59973H3.65V32.3003H25.85V12.5504H16.6ZM3.65 12.5504V3.59973V32.3003V12.5504ZM7.35 19.7499H22.15V16.1501H7.35V19.7499ZM7.35 25.1495H22.15V21.5497H7.35V25.1495ZM7.35 30.5004H16.6V26.9493H7.35V30.5004Z" fill="black"/>
</g>
<defs>
<clipPath id="clip0_93_2">
<rect width="29.5" height="35.9" fill="white"/>
</clipPath>
</defs>
</svg>
