<svg width="8" height="8" viewBox="0 0 8 8" fill="none" xmlns="http://www.w3.org/2000/svg">
<path d="M7.59285 4.54667L6.81155 3.6L7.13067 3.21333C7.18936 3.14222 7.26639 3.10667 7.36176 3.10667C7.45713 3.10667 7.53416 3.14222 7.59285 3.21333L7.91197 3.6C7.97066 3.67111 8 3.76444 8 3.88C8 3.99556 7.97066 4.08889 7.91197 4.16L7.59285 4.54667ZM3.96149 8V7.05333L6.33838 4.17333L7.11967 5.12L4.74278 8H3.96149ZM0 5.2V4.4H3.30124V5.2H0ZM0 3V2.2H5.17194V3H0ZM0 0.8V0H5.17194V0.8H0Z" fill="black"/>
</svg>
